<svg class="interactive-avatar__canvas" viewBox="0 0 420 420" xmlns="http://www.w3.org/2000/svg" width="256" height="256" xmlns:c2pa="http://c2pa.org/manifest"><metadata><c2pa:manifest>AAAWgmp1bWIAAAAeanVtZGMycGEAEQAQgAAAqgA4m3EDYzJwYQAAABZcanVtYgAAAEdqdW1kYzJtYQARABCAAACqADibcQN1cm46YzJwYTo2NGFlODVmYy1jNTFjLTQ2N2ItOGYwYy03ZWFiZjBjMzdlNTUAAAADl2p1bWIAAAApanVtZGMyYXMAEQAQgAAAqgA4m3EDYzJwYS5hc3NlcnRpb25zAAAAALxqdW1iAAAARGp1bWRjYm9yABEAEIAAAKoAOJtxE2MycGEuaW5ncmVkaWVudC52MwAAAAAYYzJzaJCfvnvjeJTnuLHS69cjf5YAAABwY2JvcqNpZGM6Zm9ybWF0bWltYWdlL3N2Zyt4bWxqaW5zdGFuY2VJRHgseG1wOmlpZDo0NzMyNDE3NS1kNjNkLTQyM2YtYmNmOS04MWFlYTkxMmJkOTRscmVsYXRpb25zaGlwaHBhcmVudE9mAAAB4mp1bWIAAABBanVtZGNib3IAEQAQgAAAqgA4m3ETYzJwYS5hY3Rpb25zLnYyAAAAABhjMnNoyx8iXMMEElBW4+yTwceziQAAAZljYm9yomdhY3Rpb25zgqJmYWN0aW9ua2MycGEub3BlbmVkanBhcmFtZXRlcnOha2luZ3JlZGllbnRzgaJjdXJseC1zZWxmI2p1bWJmPWMycGEuYXNzZXJ0aW9ucy9jMnBhLmluZ3JlZGllbnQudjNkaGFzaFgghf76Jgortoj4xNwGk1FS6SG/4eS6nHzVlkBUbZUtAPekZmFjdGlvbngdY29tLmFudGhyb3BpYy5jbGF1ZGUucHJvdmlkZWRqcGFyYW1ldGVyc6F4H2NvbS5hbnRocm9waWMub3JpZ2luLWNvbmZpZGVuY2VndW5rbm93bmtkZXNjcmlwdGlvbnhmQ2xhdWRlIHByb3ZpZGVkIHRoaXMgZmlsZSBhdCB0aGUgcmVxdWVzdCBvZiBhIHVzZXIgYW5kIG1heSBoYXZlIGNyZWF0ZWQgb3IgbW9kaWZpZWQgdGhlIGZpbGUgY29udGVudHMubXNvZnR3YXJlQWdlbnShZG5hbWVmQ2xhdWRlcmFsbEFjdGlvbnNJbmNsdWRlZPUAAADIanVtYgAAAEBqdW1kY2JvcgARABCAAACqADibcRNjMnBhLmhhc2guZGF0YQAAAAAYYzJzaG9hvhzYw/QfRA1Q++MfShgAAACAY2JvcqVjYWxnZnNoYTI1NmNwYWRNAAAAAAAAAAAAAAAAAGRoYXNoWCAPATDFwQ1arfdt1JauKaWt0x/8HYe/vOfo7UZ8RLDcemRuYW1lbmp1bWJmIG1hbmlmZXN0amV4Y2x1c2lvbnOBomVzdGFydBi5Zmxlbmd0aBkeBAAAAj5qdW1iAAAAJ2p1bWRjMmNsABEAEIAAAKoAOJtxA2MycGEuY2xhaW0udjIAAAACD2Nib3KlY2FsZ2ZzaGEyNTZpc2lnbmF0dXJleE1zZWxmI2p1bWJmPS9jMnBhL3VybjpjMnBhOjY0YWU4NWZjLWM1MWMtNDY3Yi04ZjBjLTdlYWJmMGMzN2U1NS9jMnBhLnNpZ25hdHVyZWppbnN0YW5jZUlEeCx4bXA6aWlkOmM1ZjYzYTNkLWQ4YTMtNDhjMi1hOGNhLTVmYTY3NTdkNWEyZHJjcmVhdGVkX2Fzc2VydGlvbnODomN1cmx4LXNlbGYjanVtYmY9YzJwYS5hc3NlcnRpb25zL2MycGEuaW5ncmVkaWVudC52M2RoYXNoWCCF/vomCiu2iPjE3AaTUVLpIb/h5LqcfNWWQFRtlS0A96JjdXJseCpzZWxmI2p1bWJmPWMycGEuYXNzZXJ0aW9ucy9jMnBhLmFjdGlvbnMudjJkaGFzaFggrTll4B90MZFGAtoTpMNHhuuRHfhXkNhmnLg62dvuKJaiY3VybHgpc2VsZiNqdW1iZj1jMnBhLmFzc2VydGlvbnMvYzJwYS5oYXNoLmRhdGFkaGFzaFggATVRqKAs7ts33hzpe9wuwzKXjJZbNzwXRhew4Z8oDLB0Y2xhaW1fZ2VuZXJhdG9yX2luZm+jZG5hbWVvQW50aHJvcGljIEZpbGVzZ3ZlcnNpb25lMS4wLjBrc3BlY1ZlcnNpb25lMi40LjAAABA4anVtYgAAAChqdW1kYzJjcwARABCAAACqADibcQNjMnBhLnNpZ25hdHVyZQAAABAIY2JvctKEWQISogEmGCFZAgowggIGMIIBjaADAgECAhRA5aAK7sI50L64g/oGQgU9Z1UTADAKBggqhkjOPQQDAzBJMRcwFQYDVQQKEw5BbnRocm9waWMsIFBCQzEuMCwGA1UEAxMlQW50aHJvcGljIENvbnRlbnQgQ3JlZGVudGlhbHMgUm9vdCBDQTAeFw0yNjA4MDcxODQzNTZaFw0yODA4MDYxOTQzNTZaMEQxFzAVBgNVBAoTDkFudGhyb3BpYywgUEJDMSkwJwYDVQQDEyBBbnRocm9waWMgQ2xhdWRlIENvbnRlbnQgU2lnbmluZzBZMBMGByqGSM49AgEGCCqGSM49AwEHA0IABJh6CmvLUBgFFNU0vUKlOVtE6djd17L5SuwX0LemFisBM3dkd/3cyjxFA3Qo5S46fX0/ihY0VZ7mfb9KF703t5OjWDBWMA4GA1UdDwEB/wQEAwIHgDAVBgNVHSUEDjAMBgorBgEEAYPoXgIBMAwGA1UdEwEB/wQCMAAwHwYDVR0jBBgwFoAUzlHiBIFOZFsj+OPEz5o+nMHXXMIwCgYIKoZIzj0EAwMDZwAwZAIwMXMdFJ4BetLLVY7ORuE9noqbbAZOZn/aArXyTwFAZfKrPzxF2vPoJNf1+UCdg1XGAjBwX1zd9WGqYkqmL5SFqw1QySjr1zJfpJM9+1rdDwSPLMOPOjKuiXjoU/pUUeG9RwmhY3BhZFkNngAAAAAAAAAAAAAAAAAAAAAAAAAAAAAAAAAAAAAAAAAAAAAAAAAAAAAAAAAAAAAAAAAAAAAAAAAAAAAAAAAAAAAAAAAAAAAAAAAAAAAAAAAAAAAAAAAAAAAAAAAAAAAAAAAAAAAAAAAAAAAAAAAAAAAAAAAAAAAAAAAAAAAAAAAAAAAAAAAAAAAAAAAAAAAAAAAAAAAAAAAAAAAAAAAAAAAAAAAAAAAAAAAAAAAAAAAAAAAAAAAAAAAAAAAAAAAAAAAAAAAAAAAAAAAAAAAAAAAAAAAAAAAAAAAAAAAAAAAAAAAAAAAAAAAAAAAAAAAAAAAAAAAAAAAAAAAAAAAAAAAAAAAAAAAAAAAAAAAAAAAAAAAAAAAAAAAAAAAAAAAAAAAAAAAAAAAAAAAAAAAAAAAAAAAAAAAAAAAAAAAAAAAAAAAAAAAAAAAAAAAAAAAAAAAAAAAAAAAAAAAAAAAAAAAAAAAAAAAAAAAAAAAAAAAAAAAAAAAAAAAAAAAAAAAAAAAAAAAAAAAAAAAAAAAAAAAAAAAAAAAAAAAAAAAAAAAAAAAAAAAAAAAAAAAAAAAAAAAAAAAAAAAAAAAAAAAAAAAAAAAAAAAAAAAAAAAAAAAAAAAAAAAAAAAAAAAAAAAAAAAAAAAAAAAAAAAAAAAAAAAAAAAAAAAAAAAAAAAAAAAAAAAAAAAAAAAAAAAAAAAAAAAAAAAAAAAAAAAAAAAAAAAAAAAAAAAAAAAAAAAAAAAAAAAAAAAAAAAAAAAAAAAAAAAAAAAAAAAAAAAAAAAAAAAAAAAAAAAAAAAAAAAAAAAAAAAAAAAAAAAAAAAAAAAAAAAAAAAAAAAAAAAAAAAAAAAAAAAAAAAAAAAAAAAAAAAAAAAAAAAAAAAAAAAAAAAAAAAAAAAAAAAAAAAAAAAAAAAAAAAAAAAAAAAAAAAAAAAAAAAAAAAAAAAAAAAAAAAAAAAAAAAAAAAAAAAAAAAAAAAAAAAAAAAAAAAAAAAAAAAAAAAAAAAAAAAAAAAAAAAAAAAAAAAAAAAAAAAAAAAAAAAAAAAAAAAAAAAAAAAAAAAAAAAAAAAAAAAAAAAAAAAAAAAAAAAAAAAAAAAAAAAAAAAAAAAAAAAAAAAAAAAAAAAAAAAAAAAAAAAAAAAAAAAAAAAAAAAAAAAAAAAAAAAAAAAAAAAAAAAAAAAAAAAAAAAAAAAAAAAAAAAAAAAAAAAAAAAAAAAAAAAAAAAAAAAAAAAAAAAAAAAAAAAAAAAAAAAAAAAAAAAAAAAAAAAAAAAAAAAAAAAAAAAAAAAAAAAAAAAAAAAAAAAAAAAAAAAAAAAAAAAAAAAAAAAAAAAAAAAAAAAAAAAAAAAAAAAAAAAAAAAAAAAAAAAAAAAAAAAAAAAAAAAAAAAAAAAAAAAAAAAAAAAAAAAAAAAAAAAAAAAAAAAAAAAAAAAAAAAAAAAAAAAAAAAAAAAAAAAAAAAAAAAAAAAAAAAAAAAAAAAAAAAAAAAAAAAAAAAAAAAAAAAAAAAAAAAAAAAAAAAAAAAAAAAAAAAAAAAAAAAAAAAAAAAAAAAAAAAAAAAAAAAAAAAAAAAAAAAAAAAAAAAAAAAAAAAAAAAAAAAAAAAAAAAAAAAAAAAAAAAAAAAAAAAAAAAAAAAAAAAAAAAAAAAAAAAAAAAAAAAAAAAAAAAAAAAAAAAAAAAAAAAAAAAAAAAAAAAAAAAAAAAAAAAAAAAAAAAAAAAAAAAAAAAAAAAAAAAAAAAAAAAAAAAAAAAAAAAAAAAAAAAAAAAAAAAAAAAAAAAAAAAAAAAAAAAAAAAAAAAAAAAAAAAAAAAAAAAAAAAAAAAAAAAAAAAAAAAAAAAAAAAAAAAAAAAAAAAAAAAAAAAAAAAAAAAAAAAAAAAAAAAAAAAAAAAAAAAAAAAAAAAAAAAAAAAAAAAAAAAAAAAAAAAAAAAAAAAAAAAAAAAAAAAAAAAAAAAAAAAAAAAAAAAAAAAAAAAAAAAAAAAAAAAAAAAAAAAAAAAAAAAAAAAAAAAAAAAAAAAAAAAAAAAAAAAAAAAAAAAAAAAAAAAAAAAAAAAAAAAAAAAAAAAAAAAAAAAAAAAAAAAAAAAAAAAAAAAAAAAAAAAAAAAAAAAAAAAAAAAAAAAAAAAAAAAAAAAAAAAAAAAAAAAAAAAAAAAAAAAAAAAAAAAAAAAAAAAAAAAAAAAAAAAAAAAAAAAAAAAAAAAAAAAAAAAAAAAAAAAAAAAAAAAAAAAAAAAAAAAAAAAAAAAAAAAAAAAAAAAAAAAAAAAAAAAAAAAAAAAAAAAAAAAAAAAAAAAAAAAAAAAAAAAAAAAAAAAAAAAAAAAAAAAAAAAAAAAAAAAAAAAAAAAAAAAAAAAAAAAAAAAAAAAAAAAAAAAAAAAAAAAAAAAAAAAAAAAAAAAAAAAAAAAAAAAAAAAAAAAAAAAAAAAAAAAAAAAAAAAAAAAAAAAAAAAAAAAAAAAAAAAAAAAAAAAAAAAAAAAAAAAAAAAAAAAAAAAAAAAAAAAAAAAAAAAAAAAAAAAAAAAAAAAAAAAAAAAAAAAAAAAAAAAAAAAAAAAAAAAAAAAAAAAAAAAAAAAAAAAAAAAAAAAAAAAAAAAAAAAAAAAAAAAAAAAAAAAAAAAAAAAAAAAAAAAAAAAAAAAAAAAAAAAAAAAAAAAAAAAAAAAAAAAAAAAAAAAAAAAAAAAAAAAAAAAAAAAAAAAAAAAAAAAAAAAAAAAAAAAAAAAAAAAAAAAAAAAAAAAAAAAAAAAAAAAAAAAAAAAAAAAAAAAAAAAAAAAAAAAAAAAAAAAAAAAAAAAAAAAAAAAAAAAAAAAAAAAAAAAAAAAAAAAAAAAAAAAAAAAAAAAAAAAAAAAAAAAAAAAAAAAAAAAAAAAAAAAAAAAAAAAAAAAAAAAAAAAAAAAAAAAAAAAAAAAAAAAAAAAAAAAAAAAAAAAAAAAAAAAAAAAAAAAAAAAAAAAAAAAAAAAAAAAAAAAAAAAAAAAAAAAAAAAAAAAAAAAAAAAAAAAAAAAAAAAAAAAAAAAAAAAAAAAAAAAAAAAAAAAAAAAAAAAAAAAAAAAAAAAAAAAAAAAAAAAAAAAAAAAAAAAAAAAAAAAAAAAAAAAAAAAAAAAAAAAAAAAAAAAAAAAAAAAAAAAAAAAAAAAAAAAAAAAAAAAAAAAAAAAAAAAAAAAAAAAAAAAAAAAAAAAAAAAAAAAAAAAAAAAAAAAAAAAAAAAAAAAAAAAAAAAAAAAAAAAAAAAAAAAAAAAAAAAAAAAAAAAAAAAAAAAAAAAAAAAAAAAAAAAAAAAAAAAAAAAAAAAAAAAAAAAAAAAAAAAAAAAAAAAAAAAAAAAAAAAAAAAAAAAAAAAAAAAAAAAAAAAAAAAAAAAAAAAAAAAAAAAAAAAAAAAAAAAAAAAAAAAAAAAAAAAAAAAAAAAAAAAAAAAAAAAAAAAAAAAAAAAAAAAAAAAAAAAAAAAAAAAAAAAAAAAAAAAAAAAAAAAAAAAAAAAAAAAAAAAAAAAAAAAAAAAAAAAAAAAAAAAAAAAAAAAAAAAAAAAAAAAAAAAAAAAAAAAAAAAAAAAAAAAAAAAAAAAAAAAAAAAAAAAAAAAAAAAAAAAAAAAAAAAAAAAAAAAAAAAAAAAAAAAAAAAAAAAAAAAAAAAAAAAAAAAAAAAAAAAAAAAAAAAAAAAAAAAAAAAAAAAAAAAAAAAAAAAAAAAAAAAAAAAAAAAAAAAAAAAAAAAAAAAAAAAAAAAAAAAAAAAAAAAAAAAAAAAAAAAAAAAAAAAAAAAAAAAAAAAAAAAAAAAAAAAAAAAAAAAAAAAAAAAAAAAAAAAAAAAAAAAAAAAAAAAAAAAAAAAAAAAAAAAAAAAAAAAAAAAAAAAAAAAAAAAAAAAAAAAAAAAAAAAAAAAAAAAAAAAAAAAAAAAAAAAAAAAAAAAAAAAAAAAAAAAAAAAAAAAAAAAAAAAAAAAAAAAAAAAAAAAAAAAAAAAAAAAAAAAAAAAAAAAAAAAAAAAAAAAAAAAAAAAAAAAAAAAAAAAAAAAAAAAAAAAAAAAAAAAAAAAAAAAAAAAAAAAAAAAAAAAAAAAAAAAAAAAAAAAAAAAAAAAAAAAAAAAAAAAAAAAAAAAAAAAAAAAAAAAAAAAAAAAAAAAAAAAAAAAAAAAAAAAAAAAAAAAAAAAAAAAAAAAAAAAAAAAAAAAAAAAAAAAAAAAAAAAAAAAAAAAAAAAAAAAAAAAAAAAAAAAAAAAAAAAAAAAAAAAAAAAAAAAAAAAAAAAAAAAAAAAAAAAAAAAAAAAAAAAAAAAAAAAAAAAAAAAAAAAAAAAAAAAAAAAAAAAAAAAAAAAAAAAAAAAAAAAAAAAAAAAAAAAAAAAAAAAAAAAAAAAAAAAAAAAAAAAAAAAAAAAAAAAAAAAAAAAAAAAAAAAAAAAAAAAAAAAAAAAAAAAAAAAAAAAAAAAAAAAAAAAAAAAAAAAAAAAAAAAAAAAAAAAAAAAAAAAAAAAAAAAAAAAAAAAAAAAAAAAAAAAAAAAAAAAAAAAAAAAAAAAAAAAAAAAAAAAAAAAAAAAAAAAAAAAAAAAAAAAAAAAAAAAAAAAAAAAAAAAAAAAAAAAAAAAAAAAAAAAAAAAAAAAAAAAAAAAAAAAAAAAAAAAAAAAAAAAAAAAAAAAAAAAAAPZYQAH13UbMza3c08meF5FYFtfBJz8Xf15NLJ0Gz7jKg/4ihS5tA8SDuNYcY3a+PX2Ljmso26FSHIz5pUoaVJGLTig=</c2pa:manifest></metadata><defs><clipPath id="oneworks-avatar-export-frame"><path d="M 29.53125 0 H 390.46875 Q 420 0 420 29.53125 V 390.46875 Q 420 420 390.46875 420 H 29.53125 Q 0 420 0 390.46875 V 29.53125 Q 0 0 29.53125 0 Z"/></clipPath></defs><g clip-path="url(#oneworks-avatar-export-frame)"><path d="M 29.53125 0 H 390.46875 Q 420 0 420 29.53125 V 390.46875 Q 420 420 390.46875 420 H 29.53125 Q 0 420 0 390.46875 V 29.53125 Q 0 0 29.53125 0 Z" fill="transparent"/><g><title>Interactive default avatar</title><defs><clipPath id="rcd-clip"><path d=""/></clipPath><filter id="rcd-face-shadow-blur" x="-50%" y="-50%" width="200%" height="200%"><feGaussianBlur stdDeviation="0"/></filter><filter id="rcd-avatar-shadow" x="-100%" y="-100%" width="300%" height="300%"><feDropShadow dx="-5.87785252292473" dy="8.090169943749475" stdDeviation="9" flood-color="#9b451f" flood-opacity="0.25"/></filter></defs><g transform="translate(76.7852 116.8548) translate(210 210) rotate(-23.85223301129617) scale(1.8604) translate(-210 -210)"><g data-avatar-entity-fragment-root="true" data-avatar-entity-preset="rabbit" data-avatar-fragment-composition="compiled-owner-partition" data-avatar-fragment-build-count="706" data-avatar-fragment-build-ms="11.500" data-avatar-fragment-compile-count="104" data-avatar-fragment-compile-ms="172.200" data-avatar-fragment-drag-build-max-ms="19.200" data-avatar-fragment-drag-build-mean-ms="9.600" data-avatar-fragment-drag-build-p95-ms="19.200" data-avatar-fragment-drag-build-samples="2" data-avatar-fragment-quality="full" data-avatar-fragment-raster-size="420" data-avatar-fragment-revision="{&quot;groups&quot;:[{&quot;id&quot;:&quot;anatomy-ear-left&quot;,&quot;primitiveIds&quot;:[&quot;ear-left&quot;],&quot;resolution&quot;:28},{&quot;id&quot;:&quot;anatomy-ear-right&quot;,&quot;primitiveIds&quot;:[&quot;ear-right&quot;],&quot;resolution&quot;:28},{&quot;id&quot;:&quot;anatomy-primary&quot;,&quot;primitiveIds&quot;:[&quot;primary&quot;],&quot;resolution&quot;:28}],&quot;id&quot;:&quot;production-rabbit&quot;,&quot;primitives&quot;:[{&quot;cutAngle&quot;:0,&quot;id&quot;:&quot;ear-left&quot;,&quot;materialId&quot;:&quot;ear-left&quot;,&quot;position&quot;:{&quot;x&quot;:-45.833333333333336,&quot;y&quot;:-70.23999999999997,&quot;z&quot;:-22},&quot;productionShape&quot;:&quot;trapezoid&quot;,&quot;roundness&quot;:100,&quot;rotation&quot;:{&quot;x&quot;:-0.05235987755982988,&quot;y&quot;:-0.08726646259971647,&quot;z&quot;:-0.13962634015954636},&quot;scale&quot;:{&quot;x&quot;:24.14,&quot;y&quot;:46.199999999999996,&quot;z&quot;:20.88},&quot;shape&quot;:&quot;trapezoid&quot;,&quot;topScale&quot;:0.9},{&quot;cutAngle&quot;:0,&quot;id&quot;:&quot;ear-right&quot;,&quot;materialId&quot;:&quot;ear-right&quot;,&quot;position&quot;:{&quot;x&quot;:44.00000000000001,&quot;y&quot;:-73.05999999999999,&quot;z&quot;:-24},&quot;productionShape&quot;:&quot;trapezoid&quot;,&quot;roundness&quot;:100,&quot;rotation&quot;:{&quot;x&quot;:-0.06981317007977318,&quot;y&quot;:0.12217304763960307,&quot;z&quot;:0.19198621771937624},&quot;scale&quot;:{&quot;x&quot;:24.14,&quot;y&quot;:46.199999999999996,&quot;z&quot;:19.720000000000002},&quot;shape&quot;:&quot;trapezoid&quot;,&quot;topScale&quot;:0.9},{&quot;cutAngle&quot;:0,&quot;id&quot;:&quot;primary&quot;,&quot;materialId&quot;:&quot;primary&quot;,&quot;position&quot;:{&quot;x&quot;:0,&quot;y&quot;:20,&quot;z&quot;:0},&quot;productionShape&quot;:&quot;trapezoid&quot;,&quot;roundness&quot;:100,&quot;rotation&quot;:{&quot;x&quot;:0,&quot;y&quot;:0,&quot;z&quot;:0},&quot;scale&quot;:{&quot;x&quot;:93.72,&quot;y&quot;:91.8192,&quot;z&quot;:83.52},&quot;shape&quot;:&quot;trapezoid&quot;,&quot;topScale&quot;:0.94}],&quot;resolution&quot;:28,&quot;smoothUnionPairs&quot;:[],&quot;smoothUnionRadius&quot;:0}:420:0.001480:-0.267500" data-avatar-fragment-release-build-ms="0.000" data-avatar-fragment-settle-build-ms="0.000" data-avatar-fragment-path-characters="7860" data-avatar-fragment-path-serialization-ms="0.000" data-avatar-fragment-candidate-tests="160633" data-avatar-fragment-contour-ms="4.700" data-avatar-fragment-curve-segments="241" data-avatar-fragment-contour-segments="241" data-avatar-fragment-depth-owner-ms="4.800" data-avatar-fragment-line-segments="0" data-avatar-fragment-max-curve-error="0.122" data-avatar-fragment-shared-curve-reuse="80" data-avatar-fragment-null-owner-pixels="0" data-avatar-fragment-transform-ms="0.200"><defs><filter id="rcd-entity-face-shadow" x="-50%" y="-50%" width="200%" height="200%"><feGaussianBlur stdDeviation="0"/></filter><filter id="rcd-entity-outline" x="-30%" y="-30%" width="160%" height="160%"><feMorphology in="SourceAlpha" operator="dilate" radius="2" result="expanded"/><feFlood flood-color="#292724" flood-opacity="0.82"/><feComposite in2="expanded" operator="in"/><feMerge><feMergeNode/><feMergeNode in="SourceGraphic"/></feMerge></filter><clipPath id="rcd-compiled-owner-0" clipPathUnits="userSpaceOnUse"><path d="M186.17 128.51Q185.58 128.53 185.00 128.52Q184.44 128.62 184.01 129.01Q183.65 129.15 183.51 129.51Q181.76 129.53 180.00 129.53Q179.44 129.63 179.01 130.01Q178.65 130.15 178.51 130.51Q177.26 130.53 176.00 130.52Q175.44 130.63 175.01 131.01Q174.65 131.15 174.51 131.51Q173.26 131.53 172.00 131.52Q171.44 131.62 171.01 132.01Q170.65 132.15 170.51 132.51Q169.26 132.53 168.00 132.53Q167.44 132.63 167.01 133.01Q166.65 133.15 166.51 133.51Q165.76 133.53 165.00 133.53Q164.44 133.63 164.01 134.01Q163.65 134.15 163.51 134.51Q162.76 134.53 162.00 134.53Q161.44 134.63 161.02 135.02Q160.15 135.65 159.51 136.51Q159.26 136.53 159.00 136.52Q158.44 136.63 158.01 137.01Q157.65 137.15 157.51 137.51Q157.26 137.53 157.00 137.52Q156.44 137.63 156.01 138.01Q155.65 138.15 155.51 138.51Q155.26 138.53 155.00 138.52Q154.44 138.63 154.01 139.01Q153.65 139.15 153.51 139.51Q153.26 139.53 153.00 139.53Q152.44 139.63 152.01 140.01Q151.15 140.65 150.51 141.51Q150.26 141.53 150.00 141.53Q149.44 141.63 149.01 142.01Q147.65 143.15 146.51 144.51Q146.26 144.53 146.00 144.52Q145.44 144.63 145.01 145.01Q143.15 146.65 141.51 148.51Q141.10 148.53 140.83 148.84C140.85 148.55 140.92 148.25 140.90 147.96C140.61 144.62 140.18 141.30 139.89 137.96C139.42 132.36 139.13 126.63 139.60 121.01C139.94 117.00 140.41 113.04 141.56 109.17C142.32 106.60 143.19 104.89 144.52 102.51C144.83 101.94 146.58 100.59 146.58 100.59C147.60 99.37 147.11 98.88 148.23 98.41C149.42 97.91 150.77 97.47 152.07 97.31C152.56 97.25 154.36 97.40 154.88 96.64C155.16 96.23 155.05 95.63 155.35 95.24C155.49 95.05 155.81 95.13 156.05 95.10C156.71 95.02 157.37 94.96 158.04 94.93C159.34 94.85 160.65 94.73 161.96 94.76C162.63 94.78 163.29 95.00 163.97 95.07C164.98 95.18 165.85 94.98 166.75 95.45C167.81 96.00 168.84 96.61 169.87 97.21C170.50 97.57 171.12 97.93 171.71 98.33C172.12 98.60 173.00 99.60 173.18 99.80C175.40 102.25 175.74 102.46 177.48 105.34C180.46 110.25 182.49 115.63 184.15 121.10C184.46 122.10 184.75 123.11 185.01 124.12C185.40 125.58 185.45 126.81 186.17 128.51Z" transform="scale(1)"/></clipPath><clipPath id="rcd-compiled-owner-1" clipPathUnits="userSpaceOnUse"><path d="M277.17 146.84Q276.90 146.53 276.49 146.51Q275.85 145.65 274.99 145.01Q274.57 144.62 274.00 144.52Q273.74 144.53 273.49 144.51Q272.35 143.15 270.99 142.01Q270.57 141.62 270.00 141.52Q269.74 141.53 269.49 141.51Q268.85 140.65 267.99 140.01Q267.57 139.62 267.00 139.52Q266.74 139.53 266.49 139.51Q266.35 139.15 265.99 139.01Q265.57 138.62 265.00 138.52Q264.74 138.53 264.49 138.51Q264.35 138.15 263.99 138.01Q263.57 137.62 263.00 137.52Q262.74 137.53 262.49 137.51Q262.35 137.15 261.99 137.01Q261.57 136.62 261.00 136.52Q260.74 136.53 260.49 136.51Q259.85 135.65 258.99 135.01Q258.56 134.63 258.00 134.53Q257.24 134.53 256.49 134.51Q256.35 134.15 255.99 134.01Q255.56 133.62 255.00 133.52Q254.24 133.53 253.49 133.51Q253.35 133.15 252.99 133.01Q252.57 132.62 252.00 132.52Q250.74 132.53 249.49 132.51Q249.35 132.15 248.99 132.01Q248.57 131.62 248.00 131.52Q246.74 131.53 245.49 131.51Q245.35 131.15 244.99 131.01Q244.57 130.62 244.00 130.52Q242.74 130.53 241.49 130.51Q241.35 130.15 240.99 130.01Q240.56 129.63 240.00 129.52Q238.24 129.53 236.49 129.51Q236.35 129.15 235.99 129.01Q235.57 128.62 235.00 128.52Q233.42 128.53 231.83 128.51C231.86 127.06 231.81 128.07 232.69 125.05C233.76 121.38 234.94 117.72 236.41 114.18C238.86 108.29 241.92 102.07 246.68 97.69C247.71 96.74 249.14 95.25 250.58 94.69C251.41 94.37 252.25 94.05 253.10 93.77C253.39 93.67 253.70 93.56 254.01 93.55C256.00 93.43 258.00 93.85 259.98 93.89C262.33 93.94 262.30 93.74 264.98 94.04C265.77 94.12 266.11 94.51 266.86 94.74C268.12 95.12 267.74 94.73 268.89 95.21C269.10 95.29 269.28 95.43 269.46 95.56C270.80 96.55 272.12 97.56 273.45 98.56C273.64 98.71 273.84 98.83 274.00 99.00C275.70 100.72 276.95 103.82 277.64 106.14C280.33 115.05 279.88 124.78 278.74 133.91C278.49 135.91 278.19 137.91 277.89 139.91C276.90 146.38 276.36 143.92 277.17 146.84Z" transform="scale(1)"/></clipPath><clipPath id="rcd-compiled-owner-2" clipPathUnits="userSpaceOnUse"><path d="M231.83 128.51Q233.42 128.53 235.00 128.52Q235.57 128.62 235.99 129.01Q236.35 129.15 236.49 129.51Q238.24 129.53 240.00 129.52Q240.56 129.63 240.99 130.01Q241.35 130.15 241.49 130.51Q242.74 130.53 244.00 130.52Q244.57 130.62 244.99 131.01Q245.35 131.15 245.49 131.51Q246.74 131.53 248.00 131.52Q248.57 131.62 248.99 132.01Q249.35 132.15 249.49 132.51Q250.74 132.53 252.00 132.52Q252.57 132.62 252.99 133.01Q253.35 133.15 253.49 133.51Q254.24 133.53 255.00 133.52Q255.56 133.62 255.99 134.01Q256.35 134.15 256.49 134.51Q257.24 134.53 258.00 134.53Q258.56 134.63 258.99 135.01Q259.85 135.65 260.49 136.51Q260.74 136.53 261.00 136.52Q261.57 136.62 261.99 137.01Q262.35 137.15 262.49 137.51Q262.74 137.53 263.00 137.52Q263.57 137.62 263.99 138.01Q264.35 138.15 264.49 138.51Q264.74 138.53 265.00 138.52Q265.57 138.62 265.99 139.01Q266.35 139.15 266.49 139.51Q266.74 139.53 267.00 139.52Q267.57 139.62 267.99 140.01Q268.85 140.65 269.49 141.51Q269.74 141.53 270.00 141.52Q270.57 141.62 270.99 142.01Q272.35 143.15 273.49 144.51Q273.74 144.53 274.00 144.52Q274.57 144.62 274.99 145.01Q275.85 145.65 276.49 146.51Q276.90 146.53 277.17 146.84C277.21 147.15 277.12 147.50 277.29 147.76C277.67 148.34 278.35 148.66 278.81 149.17C278.82 149.17 283.82 154.35 285.39 156.58C286.90 158.73 288.48 160.84 289.87 163.07C293.91 169.61 296.77 176.80 299.03 184.12C303.00 197.00 304.03 210.67 304.93 224.04C305.60 233.96 305.85 244.06 304.54 253.94C303.85 259.13 302.95 263.96 301.31 268.93C299.63 274.00 297.54 279.21 294.54 283.68C293.11 285.81 288.97 291.20 288.61 291.60C286.55 293.87 284.24 295.91 281.95 297.95C281.27 298.57 280.48 299.07 279.71 299.57C278.41 300.42 271.85 304.76 268.89 306.20C268.23 306.52 267.52 306.75 266.83 307.00C264.70 307.77 262.56 308.53 260.42 309.27C256.06 310.77 253.97 311.51 249.89 312.63C246.75 313.50 243.13 313.86 239.98 314.29C235.71 314.88 231.28 315.05 226.98 315.21C220.30 315.47 213.71 315.49 207.00 315.46C200.05 315.43 192.99 315.39 186.05 314.83C181.38 314.45 176.67 314.02 172.08 313.07C167.11 312.05 165.17 311.20 159.58 309.27C156.89 308.34 154.20 307.42 151.55 306.39C150.72 306.07 149.93 305.67 149.17 305.22C146.17 303.40 143.22 301.49 140.26 299.58C139.25 298.93 138.39 298.29 137.52 297.47C133.47 293.65 132.39 293.08 129.87 289.72C125.81 284.31 124.66 283.09 121.72 276.88C119.60 272.40 117.83 266.76 116.79 261.95C114.08 249.51 114.31 236.67 115.08 224.04C115.47 217.71 115.94 211.34 116.78 205.04C118.41 192.67 121.25 180.41 126.81 169.17C129.40 163.91 132.55 158.81 136.46 154.42C140.94 149.38 140.45 151.85 140.83 148.84Q141.10 148.53 141.51 148.51Q143.15 146.65 145.01 145.01Q145.44 144.63 146.00 144.52Q146.26 144.53 146.51 144.51Q147.65 143.15 149.01 142.01Q149.44 141.63 150.00 141.53Q150.26 141.53 150.51 141.51Q151.15 140.65 152.01 140.01Q152.44 139.63 153.00 139.53Q153.26 139.53 153.51 139.51Q153.65 139.15 154.01 139.01Q154.44 138.63 155.00 138.52Q155.26 138.53 155.51 138.51Q155.65 138.15 156.01 138.01Q156.44 137.63 157.00 137.52Q157.26 137.53 157.51 137.51Q157.65 137.15 158.01 137.01Q158.44 136.63 159.00 136.52Q159.26 136.53 159.51 136.51Q160.15 135.65 161.02 135.02Q161.44 134.63 162.00 134.53Q162.76 134.53 163.51 134.51Q163.65 134.15 164.01 134.01Q164.44 133.63 165.00 133.53Q165.76 133.53 166.51 133.51Q166.65 133.15 167.01 133.01Q167.44 132.63 168.00 132.53Q169.26 132.53 170.51 132.51Q170.65 132.15 171.01 132.01Q171.44 131.62 172.00 131.52Q173.26 131.53 174.51 131.51Q174.65 131.15 175.01 131.01Q175.44 130.63 176.00 130.52Q177.26 130.53 178.51 130.51Q178.65 130.15 179.01 130.01Q179.44 129.63 180.00 129.53Q181.76 129.53 183.51 129.51Q183.65 129.15 184.01 129.01Q184.44 128.62 185.00 128.52Q185.58 128.53 186.17 128.51C189.29 129.57 186.42 128.73 194.03 128.12C195.02 128.04 196.01 128.03 197.01 128.00C199.34 127.95 201.67 127.89 204.00 127.89C209.33 127.88 214.67 127.90 220.00 127.95C221.00 127.96 221.99 128.06 222.99 128.09C224.31 128.13 225.63 128.10 226.95 128.18C228.30 128.26 229.64 128.49 230.99 128.58C231.27 128.60 231.55 128.53 231.83 128.51Z" transform="scale(1)"/></clipPath><clipPath id="rcd-entity-eye-0-highlight-clip"><path d="M 189.805 173.647 L 190.930 173.565 L 192.042 173.707 L 193.099 174.067 L 194.061 174.632 L 194.889 175.380 L 195.553 176.282 L 196.026 177.303 L 196.292 178.406 L 196.292 178.406 L 196.292 178.406 L 196.292 178.406 L 196.292 178.406 L 196.292 178.406 L 196.292 178.406 L 196.292 178.406 L 196.292 178.406 L 196.338 179.546 L 196.165 180.680 L 195.777 181.766 L 195.191 182.760 L 194.429 183.625 L 193.519 184.327 L 192.498 184.839 L 191.404 185.143 L 190.178 185.357 L 188.952 185.573 L 187.727 185.792 L 186.501 186.014 L 185.275 186.239 L 184.049 186.466 L 182.824 186.696 L 181.598 186.928 L 180.473 187.030 L 179.361 186.906 L 178.303 186.562 L 177.342 186.012 L 176.514 185.275 L 175.850 184.381 L 175.376 183.364 L 175.111 182.263 L 175.111 182.263 L 175.111 182.263 L 175.111 182.263 L 175.111 182.263 L 175.111 182.263 L 175.111 182.263 L 175.111 182.263 L 175.111 182.263 L 175.064 181.121 L 175.238 179.981 L 175.625 178.887 L 176.212 177.881 L 176.974 177.002 L 177.884 176.283 L 178.905 175.752 L 179.999 175.430 L 181.225 175.198 L 182.451 174.968 L 183.677 174.741 L 184.902 174.517 L 186.128 174.296 L 187.354 174.077 L 188.579 173.861 Z"/></clipPath><clipPath id="rcd-entity-eye-1-highlight-clip"><path d="M 240.241 175.454 L 241.335 175.777 L 242.356 176.308 L 243.265 177.028 L 244.027 177.907 L 244.613 178.914 L 245.000 180.008 L 245.173 181.148 L 245.127 182.291 L 245.127 182.291 L 245.127 182.291 L 245.127 182.291 L 245.127 182.291 L 245.127 182.291 L 245.127 182.291 L 245.127 182.291 L 245.127 182.291 L 244.862 183.391 L 244.388 184.408 L 243.725 185.301 L 242.897 186.037 L 241.936 186.587 L 240.879 186.930 L 239.768 187.053 L 238.643 186.951 L 237.418 186.717 L 236.193 186.486 L 234.968 186.258 L 233.743 186.033 L 232.517 185.810 L 231.292 185.590 L 230.067 185.372 L 228.842 185.157 L 227.748 184.853 L 226.727 184.340 L 225.818 183.637 L 225.056 182.772 L 224.470 181.777 L 224.083 180.691 L 223.909 179.557 L 223.956 178.416 L 223.956 178.416 L 223.956 178.416 L 223.956 178.416 L 223.956 178.416 L 223.956 178.416 L 223.956 178.416 L 223.956 178.416 L 223.956 178.416 L 224.221 177.315 L 224.694 176.293 L 225.358 175.392 L 226.186 174.644 L 227.147 174.080 L 228.203 173.721 L 229.315 173.580 L 230.440 173.663 L 231.665 173.877 L 232.890 174.095 L 234.115 174.315 L 235.341 174.537 L 236.566 174.762 L 237.791 174.990 L 239.016 175.221 Z"/></clipPath></defs><g filter="url(#rcd-entity-outline)"><g data-avatar-entity-part="ear-left" data-avatar-fragment-interaction-area="1607" data-avatar-fragment-interaction-ratio="1" data-avatar-fragment-raw-visible-area="1607" data-avatar-fragment-visible-area="1607" data-avatar-part-geometry="compiled-owner" pointer-events="none"><g data-avatar-compiled-base-layer="ear-left"><path data-avatar-compiled-base="ear-left" d="M186.17 128.51Q185.58 128.53 185.00 128.52Q184.44 128.62 184.01 129.01Q183.65 129.15 183.51 129.51Q181.76 129.53 180.00 129.53Q179.44 129.63 179.01 130.01Q178.65 130.15 178.51 130.51Q177.26 130.53 176.00 130.52Q175.44 130.63 175.01 131.01Q174.65 131.15 174.51 131.51Q173.26 131.53 172.00 131.52Q171.44 131.62 171.01 132.01Q170.65 132.15 170.51 132.51Q169.26 132.53 168.00 132.53Q167.44 132.63 167.01 133.01Q166.65 133.15 166.51 133.51Q165.76 133.53 165.00 133.53Q164.44 133.63 164.01 134.01Q163.65 134.15 163.51 134.51Q162.76 134.53 162.00 134.53Q161.44 134.63 161.02 135.02Q160.15 135.65 159.51 136.51Q159.26 136.53 159.00 136.52Q158.44 136.63 158.01 137.01Q157.65 137.15 157.51 137.51Q157.26 137.53 157.00 137.52Q156.44 137.63 156.01 138.01Q155.65 138.15 155.51 138.51Q155.26 138.53 155.00 138.52Q154.44 138.63 154.01 139.01Q153.65 139.15 153.51 139.51Q153.26 139.53 153.00 139.53Q152.44 139.63 152.01 140.01Q151.15 140.65 150.51 141.51Q150.26 141.53 150.00 141.53Q149.44 141.63 149.01 142.01Q147.65 143.15 146.51 144.51Q146.26 144.53 146.00 144.52Q145.44 144.63 145.01 145.01Q143.15 146.65 141.51 148.51Q141.10 148.53 140.83 148.84C140.85 148.55 140.92 148.25 140.90 147.96C140.61 144.62 140.18 141.30 139.89 137.96C139.42 132.36 139.13 126.63 139.60 121.01C139.94 117.00 140.41 113.04 141.56 109.17C142.32 106.60 143.19 104.89 144.52 102.51C144.83 101.94 146.58 100.59 146.58 100.59C147.60 99.37 147.11 98.88 148.23 98.41C149.42 97.91 150.77 97.47 152.07 97.31C152.56 97.25 154.36 97.40 154.88 96.64C155.16 96.23 155.05 95.63 155.35 95.24C155.49 95.05 155.81 95.13 156.05 95.10C156.71 95.02 157.37 94.96 158.04 94.93C159.34 94.85 160.65 94.73 161.96 94.76C162.63 94.78 163.29 95.00 163.97 95.07C164.98 95.18 165.85 94.98 166.75 95.45C167.81 96.00 168.84 96.61 169.87 97.21C170.50 97.57 171.12 97.93 171.71 98.33C172.12 98.60 173.00 99.60 173.18 99.80C175.40 102.25 175.74 102.46 177.48 105.34C180.46 110.25 182.49 115.63 184.15 121.10C184.46 122.10 184.75 123.11 185.01 124.12C185.40 125.58 185.45 126.81 186.17 128.51Z" fill="#ff2a25" transform="scale(1)"/></g><g data-avatar-compiled-surface-layer="ear-left" clip-path="url(#rcd-compiled-owner-0)"><g transform="translate(-45.865843700226804 -61.944764746136045)"><g/></g></g></g><g data-avatar-entity-part="ear-right" data-avatar-fragment-interaction-area="1658" data-avatar-fragment-interaction-ratio="1" data-avatar-fragment-raw-visible-area="1658" data-avatar-fragment-visible-area="1658" data-avatar-part-geometry="compiled-owner" pointer-events="none"><g data-avatar-compiled-base-layer="ear-right"><path data-avatar-compiled-base="ear-right" d="M277.17 146.84Q276.90 146.53 276.49 146.51Q275.85 145.65 274.99 145.01Q274.57 144.62 274.00 144.52Q273.74 144.53 273.49 144.51Q272.35 143.15 270.99 142.01Q270.57 141.62 270.00 141.52Q269.74 141.53 269.49 141.51Q268.85 140.65 267.99 140.01Q267.57 139.62 267.00 139.52Q266.74 139.53 266.49 139.51Q266.35 139.15 265.99 139.01Q265.57 138.62 265.00 138.52Q264.74 138.53 264.49 138.51Q264.35 138.15 263.99 138.01Q263.57 137.62 263.00 137.52Q262.74 137.53 262.49 137.51Q262.35 137.15 261.99 137.01Q261.57 136.62 261.00 136.52Q260.74 136.53 260.49 136.51Q259.85 135.65 258.99 135.01Q258.56 134.63 258.00 134.53Q257.24 134.53 256.49 134.51Q256.35 134.15 255.99 134.01Q255.56 133.62 255.00 133.52Q254.24 133.53 253.49 133.51Q253.35 133.15 252.99 133.01Q252.57 132.62 252.00 132.52Q250.74 132.53 249.49 132.51Q249.35 132.15 248.99 132.01Q248.57 131.62 248.00 131.52Q246.74 131.53 245.49 131.51Q245.35 131.15 244.99 131.01Q244.57 130.62 244.00 130.52Q242.74 130.53 241.49 130.51Q241.35 130.15 240.99 130.01Q240.56 129.63 240.00 129.52Q238.24 129.53 236.49 129.51Q236.35 129.15 235.99 129.01Q235.57 128.62 235.00 128.52Q233.42 128.53 231.83 128.51C231.86 127.06 231.81 128.07 232.69 125.05C233.76 121.38 234.94 117.72 236.41 114.18C238.86 108.29 241.92 102.07 246.68 97.69C247.71 96.74 249.14 95.25 250.58 94.69C251.41 94.37 252.25 94.05 253.10 93.77C253.39 93.67 253.70 93.56 254.01 93.55C256.00 93.43 258.00 93.85 259.98 93.89C262.33 93.94 262.30 93.74 264.98 94.04C265.77 94.12 266.11 94.51 266.86 94.74C268.12 95.12 267.74 94.73 268.89 95.21C269.10 95.29 269.28 95.43 269.46 95.56C270.80 96.55 272.12 97.56 273.45 98.56C273.64 98.71 273.84 98.83 274.00 99.00C275.70 100.72 276.95 103.82 277.64 106.14C280.33 115.05 279.88 124.78 278.74 133.91C278.49 135.91 278.19 137.91 277.89 139.91C276.90 146.38 276.36 143.92 277.17 146.84Z" fill="#ff2a25" transform="scale(1)"/></g><g data-avatar-compiled-surface-layer="ear-right" clip-path="url(#rcd-compiled-owner-1)"><g transform="translate(43.96443119277578 -64.10068586556599)"><g/></g></g></g><g data-avatar-entity-part="primary" data-avatar-fragment-interaction-area="30425" data-avatar-fragment-interaction-ratio="1" data-avatar-fragment-raw-visible-area="30425" data-avatar-fragment-visible-area="30425" data-avatar-part-geometry="compiled-owner" pointer-events="none"><g data-avatar-compiled-base-layer="primary"><path data-avatar-compiled-base="primary" d="M231.83 128.51Q233.42 128.53 235.00 128.52Q235.57 128.62 235.99 129.01Q236.35 129.15 236.49 129.51Q238.24 129.53 240.00 129.52Q240.56 129.63 240.99 130.01Q241.35 130.15 241.49 130.51Q242.74 130.53 244.00 130.52Q244.57 130.62 244.99 131.01Q245.35 131.15 245.49 131.51Q246.74 131.53 248.00 131.52Q248.57 131.62 248.99 132.01Q249.35 132.15 249.49 132.51Q250.74 132.53 252.00 132.52Q252.57 132.62 252.99 133.01Q253.35 133.15 253.49 133.51Q254.24 133.53 255.00 133.52Q255.56 133.62 255.99 134.01Q256.35 134.15 256.49 134.51Q257.24 134.53 258.00 134.53Q258.56 134.63 258.99 135.01Q259.85 135.65 260.49 136.51Q260.74 136.53 261.00 136.52Q261.57 136.62 261.99 137.01Q262.35 137.15 262.49 137.51Q262.74 137.53 263.00 137.52Q263.57 137.62 263.99 138.01Q264.35 138.15 264.49 138.51Q264.74 138.53 265.00 138.52Q265.57 138.62 265.99 139.01Q266.35 139.15 266.49 139.51Q266.74 139.53 267.00 139.52Q267.57 139.62 267.99 140.01Q268.85 140.65 269.49 141.51Q269.74 141.53 270.00 141.52Q270.57 141.62 270.99 142.01Q272.35 143.15 273.49 144.51Q273.74 144.53 274.00 144.52Q274.57 144.62 274.99 145.01Q275.85 145.65 276.49 146.51Q276.90 146.53 277.17 146.84C277.21 147.15 277.12 147.50 277.29 147.76C277.67 148.34 278.35 148.66 278.81 149.17C278.82 149.17 283.82 154.35 285.39 156.58C286.90 158.73 288.48 160.84 289.87 163.07C293.91 169.61 296.77 176.80 299.03 184.12C303.00 197.00 304.03 210.67 304.93 224.04C305.60 233.96 305.85 244.06 304.54 253.94C303.85 259.13 302.95 263.96 301.31 268.93C299.63 274.00 297.54 279.21 294.54 283.68C293.11 285.81 288.97 291.20 288.61 291.60C286.55 293.87 284.24 295.91 281.95 297.95C281.27 298.57 280.48 299.07 279.71 299.57C278.41 300.42 271.85 304.76 268.89 306.20C268.23 306.52 267.52 306.75 266.83 307.00C264.70 307.77 262.56 308.53 260.42 309.27C256.06 310.77 253.97 311.51 249.89 312.63C246.75 313.50 243.13 313.86 239.98 314.29C235.71 314.88 231.28 315.05 226.98 315.21C220.30 315.47 213.71 315.49 207.00 315.46C200.05 315.43 192.99 315.39 186.05 314.83C181.38 314.45 176.67 314.02 172.08 313.07C167.11 312.05 165.17 311.20 159.58 309.27C156.89 308.34 154.20 307.42 151.55 306.39C150.72 306.07 149.93 305.67 149.17 305.22C146.17 303.40 143.22 301.49 140.26 299.58C139.25 298.93 138.39 298.29 137.52 297.47C133.47 293.65 132.39 293.08 129.87 289.72C125.81 284.31 124.66 283.09 121.72 276.88C119.60 272.40 117.83 266.76 116.79 261.95C114.08 249.51 114.31 236.67 115.08 224.04C115.47 217.71 115.94 211.34 116.78 205.04C118.41 192.67 121.25 180.41 126.81 169.17C129.40 163.91 132.55 158.81 136.46 154.42C140.94 149.38 140.45 151.85 140.83 148.84Q141.10 148.53 141.51 148.51Q143.15 146.65 145.01 145.01Q145.44 144.63 146.00 144.52Q146.26 144.53 146.51 144.51Q147.65 143.15 149.01 142.01Q149.44 141.63 150.00 141.53Q150.26 141.53 150.51 141.51Q151.15 140.65 152.01 140.01Q152.44 139.63 153.00 139.53Q153.26 139.53 153.51 139.51Q153.65 139.15 154.01 139.01Q154.44 138.63 155.00 138.52Q155.26 138.53 155.51 138.51Q155.65 138.15 156.01 138.01Q156.44 137.63 157.00 137.52Q157.26 137.53 157.51 137.51Q157.65 137.15 158.01 137.01Q158.44 136.63 159.00 136.52Q159.26 136.53 159.51 136.51Q160.15 135.65 161.02 135.02Q161.44 134.63 162.00 134.53Q162.76 134.53 163.51 134.51Q163.65 134.15 164.01 134.01Q164.44 133.63 165.00 133.53Q165.76 133.53 166.51 133.51Q166.65 133.15 167.01 133.01Q167.44 132.63 168.00 132.53Q169.26 132.53 170.51 132.51Q170.65 132.15 171.01 132.01Q171.44 131.62 172.00 131.52Q173.26 131.53 174.51 131.51Q174.65 131.15 175.01 131.01Q175.44 130.63 176.00 130.52Q177.26 130.53 178.51 130.51Q178.65 130.15 179.01 130.01Q179.44 129.63 180.00 129.53Q181.76 129.53 183.51 129.51Q183.65 129.15 184.01 129.01Q184.44 128.62 185.00 128.52Q185.58 128.53 186.17 128.51C189.29 129.57 186.42 128.73 194.03 128.12C195.02 128.04 196.01 128.03 197.01 128.00C199.34 127.95 201.67 127.89 204.00 127.89C209.33 127.88 214.67 127.90 220.00 127.95C221.00 127.96 221.99 128.06 222.99 128.09C224.31 128.13 225.63 128.10 226.95 128.18C228.30 128.26 229.64 128.49 230.99 128.58C231.27 128.60 231.55 128.53 231.83 128.51Z" fill="#ff382b" transform="scale(1)"/></g><g data-avatar-compiled-surface-layer="primary" clip-path="url(#rcd-compiled-owner-2)"><g transform="translate(0 19.288694249610344)"><g><g data-avatar-face-surface-layer="primary"><path data-avatar-face-feature="eye-0" d="M 189.805 173.647 L 190.930 173.565 L 192.042 173.707 L 193.099 174.067 L 194.061 174.632 L 194.889 175.380 L 195.553 176.282 L 196.026 177.303 L 196.292 178.406 L 196.292 178.406 L 196.292 178.406 L 196.292 178.406 L 196.292 178.406 L 196.292 178.406 L 196.292 178.406 L 196.292 178.406 L 196.292 178.406 L 196.338 179.546 L 196.165 180.680 L 195.777 181.766 L 195.191 182.760 L 194.429 183.625 L 193.519 184.327 L 192.498 184.839 L 191.404 185.143 L 190.178 185.357 L 188.952 185.573 L 187.727 185.792 L 186.501 186.014 L 185.275 186.239 L 184.049 186.466 L 182.824 186.696 L 181.598 186.928 L 180.473 187.030 L 179.361 186.906 L 178.303 186.562 L 177.342 186.012 L 176.514 185.275 L 175.850 184.381 L 175.376 183.364 L 175.111 182.263 L 175.111 182.263 L 175.111 182.263 L 175.111 182.263 L 175.111 182.263 L 175.111 182.263 L 175.111 182.263 L 175.111 182.263 L 175.111 182.263 L 175.064 181.121 L 175.238 179.981 L 175.625 178.887 L 176.212 177.881 L 176.974 177.002 L 177.884 176.283 L 178.905 175.752 L 179.999 175.430 L 181.225 175.198 L 182.451 174.968 L 183.677 174.741 L 184.902 174.517 L 186.128 174.296 L 187.354 174.077 L 188.579 173.861 Z" fill="#292724"/><path data-avatar-face-feature="eye-1" d="M 240.241 175.454 L 241.335 175.777 L 242.356 176.308 L 243.265 177.028 L 244.027 177.907 L 244.613 178.914 L 245.000 180.008 L 245.173 181.148 L 245.127 182.291 L 245.127 182.291 L 245.127 182.291 L 245.127 182.291 L 245.127 182.291 L 245.127 182.291 L 245.127 182.291 L 245.127 182.291 L 245.127 182.291 L 244.862 183.391 L 244.388 184.408 L 243.725 185.301 L 242.897 186.037 L 241.936 186.587 L 240.879 186.930 L 239.768 187.053 L 238.643 186.951 L 237.418 186.717 L 236.193 186.486 L 234.968 186.258 L 233.743 186.033 L 232.517 185.810 L 231.292 185.590 L 230.067 185.372 L 228.842 185.157 L 227.748 184.853 L 226.727 184.340 L 225.818 183.637 L 225.056 182.772 L 224.470 181.777 L 224.083 180.691 L 223.909 179.557 L 223.956 178.416 L 223.956 178.416 L 223.956 178.416 L 223.956 178.416 L 223.956 178.416 L 223.956 178.416 L 223.956 178.416 L 223.956 178.416 L 223.956 178.416 L 224.221 177.315 L 224.694 176.293 L 225.358 175.392 L 226.186 174.644 L 227.147 174.080 L 228.203 173.721 L 229.315 173.580 L 230.440 173.663 L 231.665 173.877 L 232.890 174.095 L 234.115 174.315 L 235.341 174.537 L 236.566 174.762 L 237.791 174.990 L 239.016 175.221 Z" fill="#292724"/></g></g></g></g></g></g></g></g></g></g></svg>